<?xml version="1.0" encoding="UTF-8" standalone="no"?>
<!-- Generator: Adobe Illustrator 19.0.0, SVG Export Plug-In . SVG Version: 6.00 Build 0)  -->

<svg
   xmlns:dc="http://purl.org/dc/elements/1.1/"
   xmlns:cc="http://creativecommons.org/ns#"
   xmlns:rdf="http://www.w3.org/1999/02/22-rdf-syntax-ns#"
   xmlns:svg="http://www.w3.org/2000/svg"
   xmlns="http://www.w3.org/2000/svg"
   xmlns:sodipodi="http://sodipodi.sourceforge.net/DTD/sodipodi-0.dtd"
   xmlns:inkscape="http://www.inkscape.org/namespaces/inkscape"
   version="1.1"
   id="Layer_1"
   x="0px"
   y="0px"
   viewBox="0 0 512 512"
   style="enable-background:new 0 0 512 512;"
   xml:space="preserve"
   inkscape:version="0.91 r13725"
   sodipodi:docname="health_check_panel_logo.svg"><metadata
     id="metadata55"><rdf:RDF><cc:Work
         rdf:about=""><dc:format>image/svg+xml</dc:format><dc:type
           rdf:resource="http://purl.org/dc/dcmitype/StillImage" /><dc:title></dc:title></cc:Work></rdf:RDF></metadata><defs
     id="defs53" /><sodipodi:namedview
     pagecolor="#ffffff"
     bordercolor="#666666"
     borderopacity="1"
     objecttolerance="10"
     gridtolerance="10"
     guidetolerance="10"
     inkscape:pageopacity="0"
     inkscape:pageshadow="2"
     inkscape:window-width="1444"
     inkscape:window-height="1056"
     id="namedview51"
     showgrid="false"
     inkscape:zoom="0.921875"
     inkscape:cx="467.87162"
     inkscape:cy="277.10246"
     inkscape:window-x="0"
     inkscape:window-y="0"
     inkscape:window-maximized="0"
     inkscape:current-layer="Layer_1" /><path
     inkscape:connector-curvature="0"
     id="path5"
     d="m 480.875,145.781 c 0,-4.569 -3.716,-8.285 -8.284,-8.285 l -433.183,0 c -4.569,0 -8.284,3.716 -8.284,8.285 l 0,298.798 c 0,4.568 3.716,8.284 8.284,8.284 l 433.183,0 c 4.569,0 8.284,-3.716 8.284,-8.284 m 31.124,0 c 10e-4,21.732 -17.678,39.409 -39.407,39.409 l -433.184,0 C 17.679,483.988 0,466.311 0,444.579 L 0,145.781 c 0,-21.73 17.679,-39.41 39.408,-39.41 l 433.183,0 c 21.73,0 39.408,17.679 39.408,39.41"
     style="fill:#b3404a"
     sodipodi:nodetypes="cssssssccssssssc" /><path
     inkscape:connector-curvature="0"
     id="path7"
     d="m 340.296,137.498 -168.592,0 c -8.594,0 -15.562,-6.967 -15.562,-15.562 l 0,-78.362 c 0,-8.595 6.969,-15.562 15.562,-15.562 l 168.593,0 c 8.594,0 15.562,6.967 15.562,15.562 l 0,78.361 c 0,8.594 -6.969,15.563 -15.563,15.563 z m -153.03,-31.125 137.468,0 0,-47.236 -137.468,0 0,47.236 0,0 z"
     style="fill:#b3404a" /><rect
     x="342.106"
     y="86.2"
     style="fill:#f4b2b0;fill-opacity:1"
     width="76.769"
     height="97.358"
     id="rect9" /><path
     style="fill:#B3404A;"
     d="M418.886,199.115h-76.775c-8.594,0-15.562-6.967-15.562-15.562V86.193  c0-8.595,6.969-15.562,15.562-15.562h76.775c8.594,0,15.562,6.967,15.562,15.562v97.359  C434.448,192.148,427.48,199.115,418.886,199.115z M357.673,167.99h45.65v-66.235h-45.65V167.99z"
     id="path11" /><rect
     x="93.114"
     y="86.2"
     style="fill:#F4B2B0;"
     width="76.769"
     height="97.358"
     id="rect13" /><path
     style="fill:#B3404A;"
     d="M169.889,199.115H93.114c-8.594,0-15.562-6.967-15.562-15.562V86.193  c0-8.595,6.969-15.562,15.562-15.562h76.775c8.594,0,15.562,6.967,15.562,15.562v97.359  C185.451,192.148,178.483,199.115,169.889,199.115z M108.676,167.99h45.65v-66.235h-45.65V167.99z"
     id="path15" /><polygon
     style="fill:#F4B2B0;"
     points="354.158,262.889 294.128,262.889 294.128,202.859 217.872,202.859 217.872,262.889   157.842,262.889 157.842,339.145 217.872,339.145 217.872,399.173 294.128,399.173 294.128,339.145 354.158,339.145 "
     id="polygon17" /><path
     style="fill:#B3404A;"
     d="M294.128,414.736h-76.255c-8.594,0-15.562-6.967-15.562-15.562v-44.468h-44.468  c-8.594,0-15.562-6.967-15.562-15.562v-76.255c0-8.595,6.969-15.562,15.562-15.562h44.468v-44.466  c0-8.595,6.969-15.562,15.562-15.562h76.255c8.594,0,15.562,6.967,15.562,15.562v44.466h44.468c8.594,0,15.562,6.967,15.562,15.562  v76.255c0,8.595-6.969,15.562-15.562,15.562H309.69v44.468C309.69,407.768,302.721,414.736,294.128,414.736z M233.435,383.611  h45.131v-44.468c0-8.595,6.969-15.562,15.562-15.562h44.468V278.45h-44.468c-8.594,0-15.562-6.967-15.562-15.562v-44.466h-45.131  v44.466c0,8.595-6.969,15.562-15.562,15.562h-44.468v45.131h44.468c8.594,0,15.562,6.967,15.562,15.562V383.611z"
     id="path19" /><g
     id="g21" /><g
     id="g23" /><g
     id="g25" /><g
     id="g27" /><g
     id="g29" /><g
     id="g31" /><g
     id="g33" /><g
     id="g35" /><g
     id="g37" /><g
     id="g39" /><g
     id="g41" /><g
     id="g43" /><g
     id="g45" /><g
     id="g47" /><g
     id="g49" /></svg>